<svg width="1120" height="320" viewBox="190 65 1120 320" fill="none" xmlns="http://www.w3.org/2000/svg">
<path d="M359.885 78.4267C360.228 78.2101 360.635 78.1331 361.024 78.2147C361.413 78.2963 361.755 78.5305 361.983 78.8671C362.212 79.2037 362.308 79.6153 362.242 80.0097C362.051 81.1445 361.841 82.2729 361.613 83.4012C357.517 102.642 349.456 120.788 337.737 137.076C342.252 140.447 346.109 144.287 349.535 148.567C360.989 132.445 369.342 112.73 373.89 92.7656C374.133 91.641 374.363 90.5069 374.574 89.3765C374.648 88.983 374.879 88.6296 375.209 88.393C375.54 88.1565 375.942 88.056 376.336 88.115C376.729 88.1741 377.084 88.3883 377.332 88.7114C377.579 89.0345 377.698 89.4404 377.654 89.8383C377.524 91.0124 377.375 92.1919 377.211 93.3627C373.942 114.482 367.253 134.787 355.79 153.679C355.376 154.292 354.961 154.89 354.499 155.499C356.782 159.043 358.888 162.826 360.91 166.837C366.931 178.77 370.048 191.892 371.044 205.175C371.131 206.293 371.185 210.047 372.009 210.679C374.105 210.862 382.382 199.931 383.713 197.956C384.814 196.323 387.659 191.978 388.159 190.139C389.948 183.546 390.726 176.591 391.237 169.778C392.441 155.976 399.76 142.657 410.82 134.399C415.284 131.063 424.227 125.766 429.393 131.144C433.936 135.875 424.914 140.813 423.237 144.33C422.148 146.616 423.502 149.25 423.902 151.523C424.555 155.239 423.822 157.86 422.336 161.208C422.037 161.881 421.628 162.652 422.01 163.371C424.047 164.882 426.353 159.75 427.205 158.546C429.875 154.746 433.701 152.518 437.24 149.689C437.66 149.353 437.834 148.802 437.727 148.273C436.974 144.572 436.481 137.309 438.313 134.652C444.66 125.439 453.769 134.533 455.157 142.391C456.524 149.877 456.216 157.425 454.322 164.81C450.555 179.489 442.366 193.012 430.247 202.19C425.699 205.634 421.473 207.517 416.214 208.942C415.563 209.118 414.992 209.517 414.605 210.072C400.852 229.798 379.722 244.21 364.351 250.727C360.144 254.646 356.611 259.987 352.608 264.251C351.881 265.027 351.95 266.278 352.846 266.849C354.753 268.066 356.741 268.999 358.732 270.177C370.638 277.218 378.141 288.548 379.946 302.344C381.323 312.112 380.738 322.058 378.225 331.595C391.253 335.64 412.126 356.999 393.104 366.983C380.04 373.554 360.305 372.773 346.185 373.705C316.122 375.529 285.718 374.602 255.674 372.244C252.326 372.005 235.492 371.18 233.943 368.664C233.79 364.153 253.918 364.091 257.269 362.898C255.551 361.733 252.94 360.675 251.016 359.705C247.887 358.101 244.924 356.186 242.172 353.992C238.017 350.69 236.117 347.733 233.005 343.646C232.08 342.432 228.432 340.725 227.008 339.511C217.754 331.648 213.193 319.026 212.003 307.191C211.638 303.559 211.239 304.021 209.311 301.148C200.378 287.841 201.642 262.722 208.645 248.998C197.865 212.361 224.18 155.593 255.012 135.212C274.193 122.378 300.655 119.862 322.206 128.475C325.426 129.766 328.396 131.198 331.149 132.767C343.311 118.531 352.957 101.06 358.335 82.6009C358.639 81.5279 358.925 80.4529 359.194 79.3701C359.29 78.9821 359.542 78.6434 359.885 78.4267Z" fill="#121729"/>
<g filter="url(#filter0_i_36_665)">
<path d="M297.792 288.385C297.072 288.181 296.821 287.272 297.337 286.73C328.178 254.331 368.997 273.437 370.492 305.743C372.045 374.427 283.55 360.512 277.336 358.951C279.677 356.857 286.966 355.443 289.16 348.637C289.803 346.644 291.923 345.123 293.942 345.675C303.151 348.194 320.252 350.52 321.881 340.527C323.023 333.519 313.556 331.026 308.509 326.218C306.814 324.603 308.007 322.221 310.338 322.438C317.828 323.135 327.773 327.813 331.336 320.646C338.016 307.209 312.925 292.668 297.792 288.385Z" fill="#56EDD6"/>
</g>
<path d="M272.805 136.545C286.931 130.275 304.646 131.456 318.791 136.639C320.39 137.224 322.196 137.979 323.624 139.061C324.482 139.711 324.643 140.906 324.068 141.818C321.371 146.09 316.595 148.594 314.014 152.866C312.407 155.528 314.212 157.667 316.564 158.882C322.536 161.289 327.37 151.61 330.989 146.777C331.745 145.767 333.124 145.587 334.16 146.301C345.668 154.231 353.098 169.187 357.156 181.507C363.33 200.246 367.267 225.316 358.052 243.716C353.846 252.07 349.309 258.354 337.537 260.992C325.5 263.589 310.718 258.87 298.094 273.52C295.603 276.205 293.224 280.164 290.393 282.098C285.922 285.151 281.564 279.069 278.958 274.324C275.085 267.274 270.153 259.27 264.712 257.659C257.131 254.413 251.04 259.426 251.732 268.474C252.424 277.522 246.476 272.687 238.465 268.076C230.453 263.465 219.81 254.001 216.822 242.612C208.27 209.79 239.003 147.587 272.805 136.545Z" fill="#56EDD6"/>
<path d="M272.805 136.545C280.512 133.124 289.286 131.922 297.966 132.376C291.617 132.719 285.383 134.034 279.725 136.545C245.923 147.587 215.19 209.79 223.741 242.612C226.729 254.001 237.373 263.465 245.384 268.076C247.654 269.382 249.758 270.707 251.593 271.728C250.534 276.031 245.237 271.974 238.465 268.076C230.453 263.465 219.81 254.001 216.822 242.612C208.27 209.79 239.003 147.587 272.805 136.545Z" fill="white" fill-opacity="0.71"/>
<path d="M263.263 176.517C271.523 175.849 278.762 182.034 279.442 190.34C280.123 198.647 273.989 205.94 265.731 206.642C257.449 207.346 250.172 201.154 249.489 192.823C248.806 184.492 254.978 177.186 263.263 176.517Z" fill="#121729"/>
<path d="M268.236 181.302C269.414 181.32 270.459 181.483 271.519 182.032C272.929 182.758 273.98 184.032 274.426 185.557C274.811 186.896 274.62 188.336 273.9 189.527C272.917 191.178 271.467 191.834 269.724 192.319C268.428 192.55 267.229 192.467 266.029 191.876C264.76 191.264 263.813 190.138 263.426 188.781C262.999 187.291 263.19 185.691 263.958 184.346C264.881 182.758 266.483 181.729 268.236 181.302Z" fill="#FEFEFE"/>
<path d="M343.174 175.081C351.827 174.382 359.409 180.86 360.122 189.562C360.835 198.264 354.41 205.904 345.759 206.639C337.084 207.376 329.461 200.89 328.745 192.163C328.03 183.435 334.495 175.782 343.174 175.081Z" fill="#121729"/>
<path d="M347.577 179.215C348.862 179.233 350.002 179.406 351.157 179.99C352.695 180.761 353.842 182.114 354.329 183.735C354.749 185.158 354.541 186.687 353.755 187.954C352.683 189.707 351.101 190.405 349.199 190.92C347.786 191.165 346.478 191.077 345.168 190.449C343.785 189.799 342.752 188.602 342.33 187.16C341.863 185.577 342.072 183.878 342.91 182.448C343.916 180.761 345.664 179.668 347.577 179.215Z" fill="#FEFEFE"/>
<g filter="url(#filter1_i_36_665)">
<path d="M250.15 306.599C212.587 313.085 208.412 285.671 211.583 267.489C211.823 266.116 213.778 265.851 214.625 266.958C220.818 275.052 234.045 281.605 243.303 284.775C247.726 286.29 252.217 291.192 253.346 295.728C253.745 297.329 254.162 298.968 254.495 300.535C255.117 303.453 253.09 306.091 250.15 306.599Z" fill="#56EDD6"/>
<path d="M261.358 326.792C233.084 346.626 223.509 328.389 221.951 314.771C221.832 313.731 222.848 312.96 223.849 313.268C238.093 317.644 250.839 317.577 257.104 316.801C258.29 316.654 259.471 317.154 260.065 318.191C260.65 319.213 261.439 320.65 262.404 322.516C263.172 323.999 262.726 325.833 261.358 326.792Z" fill="#56EDD6"/>
<path d="M246.259 343.362C252.589 341.798 257.055 339.775 260.075 337.858C263.414 335.739 268.284 334.246 271.888 335.873C273.933 336.796 276.091 337.856 278.363 339.273C280.254 340.453 280.776 342.967 279.481 344.782C267.467 361.628 250.657 351.338 245.481 345.432C244.822 344.68 245.288 343.602 246.259 343.362Z" fill="#56EDD6"/>
</g>
<path d="M285.648 203.327C286.899 202.856 288.296 202.896 289.561 203.427C290.828 203.958 291.844 204.942 292.51 206.118C292.761 206.476 293.045 206.842 293.357 207.203C297.26 211.828 304.563 214.441 308.129 213.086C309.849 212.584 311.865 211.769 314.443 209.817C314.894 209.474 315.344 209.126 315.823 208.716C316.764 207.827 317.906 207.108 319.184 206.821C320.461 206.534 321.755 206.696 322.841 207.303C323.927 207.91 324.742 208.929 325.166 210.167C325.591 211.406 325.576 212.755 325.311 214.023C325.076 214.888 324.818 215.699 324.481 216.536C322.694 221.18 318.397 225.99 312.397 227.694C298.789 231.092 287.851 222.944 283.257 212.7C282.892 211.819 282.579 210.901 282.338 209.954C282.062 208.632 282.175 207.221 282.776 205.986C283.375 204.751 284.398 203.799 285.648 203.327Z" fill="#121729"/>
<g filter="url(#filter2_i_36_665)">
<path d="M372.701 344.132C373.938 342.122 376.054 340.676 378.234 341.58C384.812 344.309 393.653 352.658 388.175 358.391C383.551 363.233 361.853 363.54 352.446 362.748C351.519 362.67 351.302 361.52 352.111 361.064C358.705 357.349 367.731 352.212 372.701 344.132Z" fill="#56EDD6"/>
</g>
<path d="M270.858 294.07C278.134 291.329 285.165 292.764 292.447 293.936C311.858 297.06 327.389 312.679 325.06 317.365C288.54 308.442 296.289 328.645 311.138 337.329C312.042 337.858 311.734 339.378 310.686 339.384C286.948 339.53 272.653 327.711 266.608 314.235C260.207 299.967 264.934 296.303 270.858 294.07Z" fill="#56EDD6"/>
<path d="M260.386 264.994C266.402 263.139 269.928 279.778 275.583 284.816C275.941 285.135 275.784 285.845 275.312 285.925C270.936 286.663 265.895 288.231 262.448 291.151C261.72 291.767 260.203 291.296 260.05 290.354C258.813 282.754 254.863 266.697 260.386 264.994Z" fill="#56EDD6"/>
<g filter="url(#filter3_i_36_665)">
<path d="M392.114 198.514C392.644 197.548 394.006 197.433 394.715 198.275C397.968 202.144 401.049 204.191 405.225 206.597C405.928 207.002 406.19 207.879 405.734 208.551C399.318 218.001 372.269 242.337 369.684 237.846C370.711 234.31 371.907 229.78 372.276 224.287C372.419 222.162 373.464 220.188 375.146 218.881C383.232 212.595 388.782 204.586 392.114 198.514ZM444.795 138.335C457.424 156.943 441.814 181.736 427.694 194.127C410.107 209.562 385.286 189.107 403.538 174.066C410.82 167.961 418.238 171.39 426.27 169.2C430.732 167.73 432.119 162.156 435.425 159.027C437.807 156.772 443.781 155.06 444.571 151.862C445.446 148.32 440.99 140.066 444.795 138.335ZM422.135 135.542C418.675 139.718 416.077 146.156 417.809 153.464C416.941 169.993 404.268 161.641 397.222 172.776C394.8 176.604 397.568 157.64 405.18 148.592C412.791 139.544 418.156 135.542 422.135 135.542Z" fill="#56EDD6"/>
</g>
<path d="M925.536 218C946.659 218 962.272 226.017 970.996 241.365C973.216 245.183 974.364 249.23 974.364 253.124C974.364 261.37 968.777 266.715 960.282 266.715C953.241 266.715 948.955 263.967 945.434 257.171C940.536 247.779 934.414 243.427 925.918 243.427C912.602 243.427 904.183 255.186 904.183 274.886C904.183 294.814 912.525 306.573 925.995 306.573C934.873 306.573 941.072 302.068 945.74 292.295C949.031 285.346 952.935 282.674 959.746 282.674C969.006 282.674 975.053 288.324 975.053 296.952C975.053 299.701 974.44 302.603 973.292 305.428C966.864 321.386 948.266 332 926.76 332C891.708 332 871.121 311.307 871.121 274.962C871.121 238.616 892.168 218 925.536 218Z" fill="#56EDD6"/>
<path d="M1005.78 218C1036.96 218 1021.47 297.457 1021.47 315.812C1021.47 326.884 1014.96 332 1005.78 332C977.886 332 977.886 218 1005.78 218Z" fill="#56EDD6"/>
<path fill-rule="evenodd" clip-rule="evenodd" d="M1079.48 243.656C1102.89 243.656 1118.58 255.338 1118.58 272.442V316.271C1118.58 327.113 1112.08 332 1103.05 332C1094.78 332 1088.97 327.953 1087.97 318.79H1087.36C1082.92 327.037 1072.66 331.313 1062.87 331.313C1047.48 331.313 1034.4 320.776 1034.4 305.581C1034.4 289.393 1046.87 280.612 1069.45 279.238L1087.97 278.092V273.969C1087.97 268.319 1083.68 265.265 1077.79 265.265C1072.89 265.265 1070.44 266.563 1065.01 271.526C1061.34 274.886 1057.36 276.565 1052.69 276.565C1045.27 276.565 1039.98 271.984 1039.98 265.494C1039.98 263.585 1040.14 262.363 1040.6 260.836C1043.81 250.07 1058.43 243.656 1079.48 243.656ZM1074.65 295.731C1068.68 296.189 1065.32 299.014 1065.32 303.137C1065.32 307.719 1069.07 310.391 1074.58 310.391C1081.54 310.391 1087.97 306.497 1087.97 300.312V294.814L1074.65 295.731Z" fill="#56EDD6"/>
<path d="M1242.03 243.885C1250.53 243.885 1256.65 249.459 1256.65 257.018C1256.65 260.149 1256.04 262.745 1254.81 267.174L1241.19 314.896C1237.82 326.731 1232 332 1220.6 332C1208.66 332 1202.54 326.808 1199.94 314.743L1191.52 275.802H1190.91L1182.56 315.049C1180.04 326.96 1173.99 332 1162.28 332C1151.11 332 1145.45 326.731 1142.08 315.049L1128.46 267.555C1127.16 263.05 1126.54 260.454 1126.54 257.247C1126.54 249.535 1132.97 243.885 1141.62 243.885C1163.11 243.885 1162.46 288.378 1165.19 302.679H1165.8L1174.45 258.393C1176.29 249.001 1182.41 243.885 1191.9 243.885C1201.32 243.885 1207.51 249.001 1209.35 258.469L1218.08 302.679H1218.69L1227.41 257.094C1228.94 249.001 1234.3 243.885 1242.03 243.885Z" fill="#56EDD6"/>
<path d="M609.016 328.991C593.637 328.991 580.553 318.456 580.553 303.264C580.553 287.08 593.025 278.3 615.596 276.926L634.111 275.781V271.659C634.111 266.01 629.827 262.956 623.935 262.956C619.039 262.956 616.59 264.254 611.158 269.216C607.486 272.575 603.507 274.254 598.84 274.254C591.418 274.254 586.139 269.674 586.139 263.185C586.139 261.276 586.292 260.055 586.751 258.528C589.964 247.764 604.578 241.351 625.619 241.351C649.031 241.351 664.716 253.032 664.716 270.132V313.951C664.716 324.792 658.213 329.678 649.184 329.678C640.921 329.678 635.106 325.632 634.111 316.471H633.499C629.062 324.715 618.809 328.991 609.016 328.991ZM620.722 308.073C627.685 308.073 634.111 304.18 634.111 297.996V292.5L620.798 293.416C614.831 293.874 611.464 296.698 611.464 300.821C611.464 305.401 615.213 308.073 620.722 308.073ZM692.26 329.678C683.079 329.678 676.575 324.563 676.575 313.493V257.307C676.575 247.306 682.008 241.58 691.801 241.58C701.595 241.58 707.945 247.306 707.945 257.383V259.292H708.557C712.842 247.459 720.876 241.81 733.729 241.81C752.704 241.81 763.11 253.566 763.11 273.796V313.493C763.11 324.563 756.606 329.678 747.425 329.678C738.244 329.678 731.74 324.563 731.74 313.493V280.743C731.74 272.269 727.762 267.078 719.881 267.078C712.459 267.078 707.945 272.804 707.945 280.667V313.493C707.945 324.563 701.442 329.678 692.26 329.678ZM816.744 329.907C789.2 329.907 772.368 314.028 772.368 285.553C772.368 257.841 789.659 241.351 816.744 241.351C843.982 241.351 861.198 257.688 861.198 285.553C861.198 314.104 844.365 329.907 816.744 329.907ZM816.744 307.539C824.549 307.539 829.369 299.752 829.369 285.629C829.369 271.888 824.472 263.719 816.744 263.719C809.093 263.719 804.197 271.888 804.197 285.629C804.197 299.752 808.864 307.539 816.744 307.539Z" fill="white"/>
<path d="M500.046 224.856C495.379 218.672 490.865 216 484.973 216C457.204 216 457.752 329.977 484.973 329.977C494.614 329.977 500.276 324.327 500.276 313.945V270.049L538.608 321.121C543.199 327.381 547.56 329.977 553.757 329.977C580.778 329.977 580.71 216 553.375 216C543.734 216 538.072 221.649 538.072 232.032V275.011L500.046 224.856Z" fill="white"/>
<defs>
<filter id="filter0_i_36_665" x="277.336" y="269.976" width="93.1758" height="91.1606" filterUnits="userSpaceOnUse" color-interpolation-filters="sRGB">
<feFlood flood-opacity="0" result="BackgroundImageFix"/>
<feBlend mode="normal" in="SourceGraphic" in2="BackgroundImageFix" result="shape"/>
<feColorMatrix in="SourceAlpha" type="matrix" values="0 0 0 0 0 0 0 0 0 0 0 0 0 0 0 0 0 0 127 0" result="hardAlpha"/>
<feOffset dx="-9.38867" dy="-2.4707"/>
<feComposite in2="hardAlpha" operator="arithmetic" k2="-1" k3="1"/>
<feColorMatrix type="matrix" values="0 0 0 0 0 0 0 0 0 0 0 0 0 0 0 0 0 0 0.15 0"/>
<feBlend mode="normal" in2="shape" result="effect1_innerShadow_36_665"/>
</filter>
<filter id="filter1_i_36_665" x="210.73" y="266.27" width="69.4648" height="87.7212" filterUnits="userSpaceOnUse" color-interpolation-filters="sRGB">
<feFlood flood-opacity="0" result="BackgroundImageFix"/>
<feBlend mode="normal" in="SourceGraphic" in2="BackgroundImageFix" result="shape"/>
<feColorMatrix in="SourceAlpha" type="matrix" values="0 0 0 0 0 0 0 0 0 0 0 0 0 0 0 0 0 0 127 0" result="hardAlpha"/>
<feOffset dx="6.42383" dy="-6.42383"/>
<feComposite in2="hardAlpha" operator="arithmetic" k2="-1" k3="1"/>
<feColorMatrix type="matrix" values="0 0 0 0 1 0 0 0 0 1 0 0 0 0 1 0 0 0 0.77 0"/>
<feBlend mode="normal" in2="shape" result="effect1_innerShadow_36_665"/>
</filter>
<filter id="filter2_i_36_665" x="351.609" y="341.305" width="38.2773" height="21.7776" filterUnits="userSpaceOnUse" color-interpolation-filters="sRGB">
<feFlood flood-opacity="0" result="BackgroundImageFix"/>
<feBlend mode="normal" in="SourceGraphic" in2="BackgroundImageFix" result="shape"/>
<feColorMatrix in="SourceAlpha" type="matrix" values="0 0 0 0 0 0 0 0 0 0 0 0 0 0 0 0 0 0 127 0" result="hardAlpha"/>
<feOffset dy="6.42383"/>
<feComposite in2="hardAlpha" operator="arithmetic" k2="-1" k3="1"/>
<feColorMatrix type="matrix" values="0 0 0 0 0 0 0 0 0 0 0 0 0 0 0 0 0 0 0.25 0"/>
<feBlend mode="normal" in2="shape" result="effect1_innerShadow_36_665"/>
</filter>
<filter id="filter3_i_36_665" x="369.684" y="135.542" width="79.7578" height="102.851" filterUnits="userSpaceOnUse" color-interpolation-filters="sRGB">
<feFlood flood-opacity="0" result="BackgroundImageFix"/>
<feBlend mode="normal" in="SourceGraphic" in2="BackgroundImageFix" result="shape"/>
<feColorMatrix in="SourceAlpha" type="matrix" values="0 0 0 0 0 0 0 0 0 0 0 0 0 0 0 0 0 0 127 0" result="hardAlpha"/>
<feOffset dx="5.43554" dy="4.44726"/>
<feComposite in2="hardAlpha" operator="arithmetic" k2="-1" k3="1"/>
<feColorMatrix type="matrix" values="0 0 0 0 1 0 0 0 0 1 0 0 0 0 1 0 0 0 0.36 0"/>
<feBlend mode="normal" in2="shape" result="effect1_innerShadow_36_665"/>
</filter>
</defs>
</svg>
